# xmcd
#
# Track frame offsets:
#   150
#   18835
#   39914
#   58225
#   73004
#   87561
#   103425
#   121736
#   139418
#   155460
#   172554
#   192384
#   210501
#   230971
#   250996
#   268427
#   277185
#
# Disc length: 3916 seconds
#
# Revision: 0
# Processed by: cddbd v1.5.2PL0 Copyright (c) Steve Scherf et al.
# Submitted via: uFREEDB ActiveX Control 1.5
#
DISCID=050f4a11
DTITLE=msadfdsf - dgzdf
DYEAR=2000
DGENRE=dfgdfx
TTITLE0=as
TTITLE1=bt
TTITLE2=cr
TTITLE3=dd
TTITLE4=e
TTITLE5=f
TTITLE6=g
TTITLE7=hg
TTITLE8=hi
TTITLE9=j
TTITLE10=k
TTITLE11=l
TTITLE12=m
TTITLE13=n
TTITLE14=o
TTITLE15=p
TTITLE16=r
EXTD=
EXTT0=
EXTT1=
EXTT2=
EXTT3=
EXTT4=
EXTT5=
EXTT6=
EXTT7=
EXTT8=
EXTT9=
EXTT10=
EXTT11=
EXTT12=
EXTT13=
EXTT14=
EXTT15=
EXTT16=
PLAYORDER=
